<svg width="71" height="67" viewBox="0 0 71 67" fill="none" xmlns="http://www.w3.org/2000/svg">
<path d="M67.0638 38.2399C66.3105 38.0935 65.5844 38.5897 65.4397 39.3468C62.6831 53.752 50.0916 64.2072 35.5 64.2072C21.2158 64.2072 8.84847 54.1878 5.74762 40.2519L6.10956 40.6164C6.38038 40.8891 6.73524 41.0255 7.09011 41.0255C7.44497 41.0255 7.79983 40.8891 8.07052 40.6165C8.61217 40.0712 8.61217 39.1872 8.07065 38.6418L5.21887 35.77C4.95886 35.508 4.60607 35.3608 4.23832 35.3608C3.87056 35.3608 3.51778 35.508 3.25777 35.77L0.406118 38.6418C-0.135396 39.187 -0.135396 40.0711 0.406257 40.6165C0.947632 41.1619 1.82584 41.1618 2.36736 40.6164L2.88072 40.0994C5.97546 55.7006 19.6571 67 35.5 67C51.4185 67 65.1554 55.5924 68.163 39.8753C68.3079 39.1181 67.8158 38.3858 67.0638 38.2399Z" fill="white"/>
<path d="M70.5937 26.3835C70.0523 25.8381 69.1741 25.8382 68.6326 26.3836L68.1192 26.9006C65.0245 11.2994 51.3428 0 35.5 0C19.5814 0 5.84455 11.4076 2.8369 27.1247C2.69198 27.8821 3.18413 28.6142 3.93615 28.7601C4.68914 28.9058 5.41536 28.4102 5.56028 27.6532C8.31693 13.248 20.9085 2.79276 35.5 2.79276C49.7841 2.79276 62.1515 12.8122 65.2523 26.7481L64.8904 26.3836C64.349 25.8383 63.4711 25.8382 62.9293 26.3835C62.3876 26.9288 62.3876 27.8128 62.9291 28.3582L65.7808 31.23C66.0408 31.492 66.3936 31.6392 66.7613 31.6392C67.1291 31.6392 67.4819 31.492 67.7419 31.23L70.5935 28.3582C71.1355 27.813 71.1355 26.9288 70.5937 26.3835Z" fill="white"/>
<path d="M35.5 57.1043C48.4253 57.1043 58.9409 46.5154 58.9409 33.5C58.9409 20.4846 48.4253 9.89573 35.5 9.89573C22.5746 9.89573 12.059 20.4846 12.059 33.5C12.059 46.5154 22.5746 57.1043 35.5 57.1043ZM35.5 12.6885C46.8962 12.6885 56.1675 22.0244 56.1675 33.5C56.1675 44.9756 46.8962 54.3115 35.5 54.3115C24.1038 54.3115 14.8324 44.9756 14.8324 33.5C14.8324 22.0244 24.1038 12.6885 35.5 12.6885Z" fill="white"/>
<path d="M36.9632 39.6555C37.1313 39.723 37.3046 39.7548 37.4752 39.7548C38.0266 39.7548 38.548 39.4213 38.7642 38.874L42.6019 29.1581C42.8849 28.4415 42.5374 27.6295 41.8259 27.3445C41.1145 27.0596 40.3079 27.4093 40.0248 28.126L36.1871 37.8419C35.9041 38.5585 36.2516 39.3705 36.9632 39.6555Z" fill="white"/>
<path d="M44.7997 30.0384H47.9836L44.5968 37.7961C44.2886 38.5021 44.6071 39.326 45.3082 39.6364C45.4899 39.7168 45.6792 39.755 45.8657 39.755C46.399 39.7548 46.9075 39.4433 47.1358 38.9202L51.3775 29.2042C51.5659 28.7723 51.5253 28.2739 51.2693 27.879C51.0132 27.484 50.5765 27.2459 50.1081 27.2459H44.7999C44.0341 27.2459 43.4131 27.8712 43.4131 28.6423C43.413 29.4131 44.0338 30.0384 44.7997 30.0384Z" fill="white"/>
<path d="M27.049 36.2003C27.2985 36.6258 27.7525 36.8868 28.2431 36.8868H31.6722C31.6683 37.4015 31.6643 37.8945 31.6604 38.346C31.6539 39.1172 32.2695 39.7477 33.0352 39.7544H33.0474C33.8076 39.7544 34.4272 39.137 34.4338 38.37C34.437 38.0046 34.4412 37.486 34.4459 36.8794C35.1443 36.8069 35.6891 36.2127 35.6891 35.4904C35.6891 34.7743 35.154 34.1842 34.4644 34.1034C34.4768 31.8305 34.4816 29.5422 34.4533 29.1996C34.3791 28.3015 33.8344 27.5666 33.0656 27.3267C32.2979 27.0877 31.4907 27.3762 30.9059 28.0987C30.3568 28.7769 28.0118 33.0221 27.029 34.8158C26.7919 35.2485 26.7995 35.7748 27.049 36.2003ZM31.6991 32.1441C31.697 32.7472 31.6941 33.4109 31.6904 34.094H30.6018C30.9872 33.4027 31.3617 32.7364 31.6991 32.1441Z" fill="white"/>
<path d="M26.2102 39.827C26.9759 39.8174 27.5889 39.1842 27.5793 38.4132C27.5699 37.6481 26.9508 37.0344 26.1931 37.0344C26.1872 37.0344 26.1812 37.0344 26.1752 37.0345C25.416 37.044 24.6184 37.0511 23.8977 37.0546C24.3966 36.3744 25.0372 35.4831 25.8463 34.319C26.4846 33.4007 26.9019 32.5277 27.0869 31.7244C27.1324 31.5462 27.1701 31.2941 27.1705 31.0331C27.1735 28.8922 25.4408 27.1505 23.3147 27.1505C21.4765 27.1505 19.8855 28.4676 19.5313 30.282C19.3838 31.0387 19.8732 31.7727 20.6248 31.9214C21.3768 32.0704 22.1052 31.5772 22.2528 30.8203C22.3519 30.3121 22.7986 29.9433 23.3147 29.9433C23.8878 29.9433 24.3582 30.3943 24.3947 30.9622L24.3704 31.1534C24.2876 31.4719 24.0812 31.988 23.5742 32.7175C22.0492 34.9114 21.1395 36.1108 20.6508 36.7551C20.0242 37.5813 19.679 38.0364 19.9096 38.7921C20.0454 39.2363 20.3918 39.5907 20.8373 39.7404C21.0225 39.8026 21.1707 39.8523 23.0646 39.8523C23.8081 39.8521 24.8207 39.8446 26.2102 39.827Z" fill="white"/>
</svg>
