<svg width="59" height="71" viewBox="0 0 59 71" fill="none" xmlns="http://www.w3.org/2000/svg">
<path d="M58.8143 60.5456L51.1278 47.2263L53.2614 45.9983C54.737 45.2013 55.6527 43.6677 55.6527 41.9877L55.6441 36.5306L58.3587 31.844C59.2023 30.4242 59.2129 28.6564 58.3858 27.2275L55.6441 22.494L55.6527 17.0337C55.651 15.4093 54.7759 13.8975 53.3689 13.0887L48.6377 10.3657L45.9781 5.74008C45.1815 4.26376 43.6486 3.34768 41.9693 3.34768L36.5148 3.35627L31.831 0.640757C30.4116 -0.203491 28.6444 -0.214308 27.2161 0.613299L22.4846 3.35627L17.0268 3.34768C15.4031 3.34934 13.892 4.22493 13.0836 5.63247L10.362 10.3658L5.73861 13.0264C4.26282 13.8234 3.34702 15.3571 3.34702 17.0372L3.35561 22.4941L0.641607 27.1798C-0.202395 28.5998 -0.213207 30.3681 0.614023 31.7971L3.35575 36.5307L3.34702 41.991C3.34868 43.6155 4.22387 45.1271 5.63077 45.936L7.87211 47.226L0.185715 60.5456C-0.0823585 61.0102 -0.0586557 61.5878 0.246704 62.0286C0.552064 62.4696 1.08391 62.6955 1.61313 62.6069L11.179 61.0182L14.5867 70.1006C14.7751 70.6028 15.2361 70.9512 15.7704 70.9953C15.8087 70.9983 15.8468 71 15.8847 71C16.3767 71 16.8358 70.7379 17.0848 70.3066L24.7684 56.9922L27.1694 58.3843C27.8871 58.8111 28.6936 59.0248 29.5003 59.0247C30.2888 59.0247 31.0777 58.8204 31.7836 58.4114L34.2316 56.9922L41.9152 70.3066C42.1642 70.7379 42.6231 71 43.1153 71C43.1532 71 43.1913 70.9985 43.2296 70.9953C43.7639 70.9512 44.2249 70.6027 44.4133 70.1006L47.821 61.0182L57.3869 62.6069C57.9159 62.6952 58.4479 62.4695 58.7533 62.0286C59.0587 61.5878 59.0824 61.0102 58.8143 60.5456ZM16.1508 66.3779L13.3737 58.9763C13.141 58.356 12.502 57.9867 11.849 58.0955L4.05338 59.3902L10.2751 48.609L10.362 48.659L13.0215 53.2847C13.8181 54.761 15.351 55.6771 17.0303 55.6771L22.3309 55.6687L16.1508 66.3779ZM30.3939 56.0117C29.8336 56.3365 29.1392 56.3313 28.5818 55.9981C28.5764 55.9949 28.5712 55.9917 28.5658 55.9887L23.5514 53.0816C23.3403 52.9592 23.1005 52.8947 22.8564 52.8947C22.8557 52.8947 22.855 52.8947 22.8542 52.8947L17.0281 52.9039C16.3691 52.9039 15.7668 52.5418 15.4564 51.9589C15.4493 51.9458 15.4421 51.9326 15.4346 51.9195L12.5785 46.9522C12.4565 46.7399 12.2804 46.5638 12.0681 46.4416L7.01231 43.5321C6.46188 43.2157 6.11965 42.6242 6.11896 41.9923L6.12825 36.1616C6.12866 35.9167 6.06421 35.6761 5.9414 35.4641L3.01241 30.4072C2.68778 29.8465 2.69305 29.1519 3.02599 28.5943C3.02918 28.589 3.03237 28.5836 3.03542 28.5782L5.94126 23.5614C6.06393 23.3495 6.12838 23.1089 6.12811 22.864L6.11896 17.0352C6.11896 16.376 6.48087 15.7733 7.06359 15.4628C7.07676 15.4557 7.08979 15.4485 7.10282 15.441L12.068 12.5837C12.2802 12.4616 12.4563 12.2854 12.5784 12.0731L15.4866 7.01491C15.8029 6.46438 16.3941 6.12185 17.0257 6.1213L22.8537 6.13059H22.856C23.0999 6.13059 23.3397 6.06611 23.551 5.94366L28.6055 3.01333C29.1659 2.68856 29.8604 2.69383 30.4175 3.02692C30.4229 3.03011 30.4281 3.0333 30.4335 3.03635L35.4481 5.94338C35.6592 6.06583 35.899 6.13031 36.1431 6.13031H36.1453L41.9714 6.12116C42.6303 6.12116 43.2327 6.48324 43.5431 7.06608C43.5502 7.07926 43.5574 7.09243 43.5649 7.10547L46.4209 12.0728C46.5429 12.2851 46.7191 12.4612 46.9313 12.5834L51.9871 15.493C52.5374 15.8095 52.8798 16.4009 52.8803 17.0329L52.8711 22.8637C52.8708 23.1086 52.9351 23.3492 53.0579 23.5611L55.9869 28.6179C56.3115 29.1785 56.3063 29.8733 55.9733 30.4306C55.9701 30.436 55.9669 30.4413 55.9639 30.4467L53.058 35.4635C52.9354 35.6754 52.8708 35.916 52.8712 36.1609L52.8803 41.9896C52.8803 42.6489 52.5184 43.2514 51.9359 43.5621C51.9227 43.5691 51.9095 43.5764 51.8965 43.5838L46.9314 46.4412C46.7192 46.5633 46.5432 46.7395 46.4211 46.9518L43.5127 52.01C43.1964 52.5606 42.6053 52.903 41.9736 52.9036L36.1454 52.8943C36.1447 52.8943 36.144 52.8943 36.1432 52.8943C35.8991 52.8943 35.6595 52.9588 35.4482 53.0812L30.3939 56.0117ZM47.1509 58.0957C46.498 57.9865 45.8589 58.3561 45.6261 58.9764L42.8489 66.378L36.6688 55.6689L41.9728 55.6773C43.5965 55.6758 45.1075 54.8002 45.9161 53.3927L48.6379 48.6592L48.7247 48.6093L54.9463 59.3905L47.1509 58.0957Z" fill="white"/>
<path d="M50.8462 29.5125C50.8462 17.7367 41.2703 8.15653 29.5 8.15653C26.0845 8.15653 22.8206 8.9399 19.7986 10.485C19.117 10.8335 18.8467 11.6689 19.1951 12.3509C19.5434 13.0327 20.3785 13.3033 21.0601 12.9547C23.6877 11.6112 26.5273 10.93 29.5 10.93C39.7418 10.93 48.074 19.266 48.074 29.5125C48.074 39.759 39.7417 48.095 29.5 48.095C19.2583 48.095 10.926 39.7588 10.926 29.5125C10.926 26.5388 11.6067 23.6982 12.9493 21.0697C13.2976 20.3877 13.0273 19.5524 12.3457 19.2039C11.6643 18.8552 10.8291 19.1258 10.4807 19.8077C8.93675 22.8305 8.15373 26.0957 8.15373 29.5125C8.15373 41.2881 17.7295 50.8685 29.5 50.8685C41.2704 50.8685 50.8462 41.2881 50.8462 29.5125Z" fill="white"/>
<path d="M15.6389 31.8952C15.6389 32.2988 15.8145 32.6822 16.12 32.9455C17.8063 34.3998 19.8443 35.344 21.9943 35.6885C21.7397 36.2691 21.5454 36.8958 21.4163 37.5583C21.2839 38.2372 21.6722 38.9101 22.3262 39.135C23.2619 39.4568 24.1949 39.6167 25.0952 39.6167C26.1653 39.6167 27.1884 39.39 28.114 38.9415V41.9932C28.114 42.7591 28.7346 43.3799 29.5001 43.3799C30.2657 43.3799 30.8862 42.7591 30.8862 41.9932V38.9404C32.5906 39.7664 34.6257 39.8396 36.6738 39.135C37.3276 38.9101 37.7159 38.2373 37.5836 37.5584C37.4546 36.8958 37.2602 36.2691 37.0058 35.6885C39.1559 35.344 41.1937 34.3998 42.8801 32.9455C43.1856 32.6822 43.3612 32.2986 43.3612 31.8952C43.3612 31.4917 43.1856 31.1082 42.8801 30.8448C41.5587 29.7053 40.0447 28.8835 38.4199 28.4142C39.2869 26.8962 39.8051 25.1928 39.9386 23.3914C39.9684 22.989 39.8216 22.5936 39.5365 22.3083C39.2514 22.023 38.8568 21.8759 38.4538 21.906C36.6067 22.043 34.8318 22.6042 33.2706 23.5265C32.9234 20.8762 32.0399 18.4078 30.6643 16.279C30.409 15.8838 29.9707 15.6451 29.5002 15.6451C29.0298 15.6451 28.5915 15.8838 28.3362 16.279C26.9606 18.4078 26.0771 20.8763 25.7297 23.5265C24.1686 22.6042 22.3939 22.043 20.5465 21.906C20.1446 21.8757 19.7491 22.023 19.4638 22.3084C19.1787 22.5936 19.0318 22.9891 19.0617 23.3914C19.1952 25.193 19.7135 26.8962 20.5805 28.4142C18.9557 28.8835 17.4415 29.7054 16.1201 30.8449C15.8146 31.1082 15.6389 31.4918 15.6389 31.8952ZM23.0745 30.761C23.5947 30.7172 24.0463 30.3846 24.2426 29.9005C24.439 29.4166 24.3467 28.8632 24.004 28.4691C23.1221 27.4546 22.49 26.2696 22.1347 24.9794C23.5829 25.3773 24.8916 26.1233 25.9831 27.1832C26.3834 27.5718 26.9775 27.6824 27.4908 27.4643C28.0041 27.2459 28.3366 26.7411 28.3345 26.1831C28.3266 24.0232 28.7328 21.9086 29.4998 20.0294C30.2669 21.9085 30.6729 24.0231 30.6651 26.183C30.6631 26.741 30.9956 27.2459 31.509 27.4642C32.0221 27.6824 32.6165 27.5718 33.0167 27.1831C34.1082 26.123 35.4167 25.377 36.8652 24.9793C36.5101 26.2693 35.8779 27.4543 34.9959 28.4689C34.6532 28.863 34.5611 29.4163 34.7573 29.9003C34.9536 30.3842 35.4051 30.7169 35.9254 30.7607C37.2169 30.8696 38.4551 31.2557 39.5792 31.8933C38.2322 32.6538 36.7145 33.0612 35.1703 33.0612C34.9822 33.0612 34.7919 33.0552 34.6047 33.0434C34.0291 33.0079 33.4921 33.3308 33.2547 33.8559C33.0171 34.3811 33.1292 34.9986 33.536 35.4067C33.9178 35.7896 34.233 36.2651 34.4717 36.8134C33.651 36.9082 32.7263 36.8229 31.853 36.3185C31.3752 36.0425 30.9619 35.6651 30.6244 35.1965C30.3638 34.8348 29.9455 34.6204 29.4998 34.6204C29.0543 34.6204 28.6359 34.8347 28.3753 35.1964C28.0378 35.6648 27.6243 36.0425 27.1464 36.3185C26.2732 36.8229 25.3486 36.9079 24.5277 36.8134C24.7665 36.2651 25.0817 35.7896 25.4633 35.4066C25.8703 34.9985 25.9823 34.381 25.7447 33.8558C25.5073 33.3305 24.9702 33.0075 24.3946 33.0433C22.6606 33.153 20.9308 32.7461 19.4202 31.8933C20.5447 31.2559 21.7829 30.8697 23.0745 30.761Z" fill="white"/>
<path d="M15.3855 16.779C15.7404 16.779 16.0954 16.6433 16.3661 16.3725C16.9074 15.831 16.9074 14.9529 16.3661 14.4114C15.8249 13.8699 14.9473 13.8699 14.4059 14.4114L14.4052 14.4121C13.864 14.9536 13.8642 15.8313 14.4055 16.3728C14.6762 16.6438 15.0308 16.779 15.3855 16.779Z" fill="white"/>
</svg>
