<svg width="71" height="71" viewBox="0 0 71 71" fill="none" xmlns="http://www.w3.org/2000/svg">
<path d="M71 9.82236C71 4.40629 66.5926 0 61.175 0C56.4684 0 52.5261 3.32635 51.5719 7.75067H37.9441C36.092 7.75067 34.3507 8.4716 33.0406 9.7809L2.03177 40.7736C0.72169 42.083 1.99982e-08 43.8243 1.99982e-08 45.6763C-0.000138687 47.5285 0.721274 49.2697 2.03136 50.5794L20.4263 68.9692C21.7363 70.2786 23.4779 71 25.3303 71C27.1827 71 28.9243 70.2788 30.2343 68.9692L40.9624 58.2441C41.5041 57.7026 41.5041 56.8246 40.9624 56.283C40.4206 55.7416 39.5426 55.7416 39.0007 56.283L28.2726 67.008C26.6501 68.63 24.0102 68.63 22.3878 67.008L3.99281 48.6184C3.20676 47.8326 2.77385 46.7879 2.77399 45.6764C2.77399 44.5652 3.2069 43.5206 3.99308 42.7349L35.002 11.7422C35.788 10.9567 36.8328 10.524 37.9441 10.524H51.3775C51.5431 12.883 52.5384 15.079 54.2275 16.7675C54.7692 17.3091 55.6474 17.3091 56.1891 16.7676C56.7308 16.2261 56.7308 15.3482 56.1892 14.8066C55.0243 13.6419 54.3173 12.1416 54.1585 10.5239H56.3401C58.6346 10.5239 60.5013 12.3901 60.5013 14.6839V33.0656C60.5013 34.1768 60.0685 35.2215 59.2825 36.0072L47.828 47.4585C47.2863 47.9999 47.2863 48.878 47.828 49.4196C48.3697 49.961 49.2478 49.961 49.7897 49.4196L61.2442 37.9683C62.554 36.6588 63.2756 34.9177 63.2756 33.0658V26.2419V19.4181C67.7484 18.4526 71 14.5068 71 9.82236ZM63.2754 16.5545V14.6839C63.2754 10.8608 60.1642 7.75053 56.3401 7.75053H54.4354C55.3227 4.87166 58.0082 2.77334 61.175 2.77334C65.0628 2.77334 68.2259 5.93551 68.2259 9.82236C68.2259 12.9744 66.1758 15.6604 63.2754 16.5545Z" fill="white"/>
<path d="M19.1285 45.6013C19.6702 45.0598 19.6702 44.1818 19.1285 43.6401C18.5868 43.0988 17.7087 43.0988 17.1668 43.6401L13.8277 46.9783C13.2861 47.5198 13.2861 48.3978 13.8277 48.9394L22.0663 57.1758C22.3372 57.4465 22.6922 57.582 23.0471 57.582C23.4021 57.582 23.757 57.4465 24.0279 57.1758C24.5696 56.6344 24.5696 55.7563 24.0279 55.2147L20.8113 51.999L22.9044 49.9065C23.4461 49.365 23.4461 48.4869 22.9044 47.9453C22.3626 47.404 21.4846 47.404 20.9427 47.9453L18.8496 50.0378L16.7698 47.9586L19.1285 45.6013Z" fill="white"/>
<path d="M35.5016 45.1327C36.2273 45.1327 36.8378 44.5686 36.8845 43.8344C36.9333 43.0701 36.3531 42.411 35.5886 42.3623L31.0031 42.07C31.3885 41.4076 31.6071 40.6581 31.6314 39.8786C31.6696 38.6521 31.2264 37.5126 30.3835 36.6697C28.6621 34.9489 25.8068 35.003 24.0182 36.7908L21.8289 38.9795L21.8276 38.9809L21.8262 38.9822C21.2846 39.5236 21.2846 40.4017 21.8262 40.9433L30.065 49.1796C30.3359 49.4503 30.6908 49.5858 31.0458 49.5858C31.4007 49.5858 31.7557 49.4503 32.0266 49.1796C32.5682 48.6381 32.5682 47.7601 32.0266 47.2184L29.5644 44.7571L35.4117 45.1298C35.4421 45.1318 35.4721 45.1327 35.5016 45.1327ZM25.9801 38.7518C26.6747 38.0574 27.7928 38.0019 28.4219 38.6308C28.7177 38.9265 28.8728 39.3388 28.8587 39.792C28.844 40.2657 28.6405 40.732 28.3007 41.0717C28.0225 41.3498 27.5435 41.8327 27.106 42.2744C26.6739 41.8469 26.2049 41.3819 25.9374 41.1146C25.7085 40.8859 25.225 40.405 24.7745 39.957L25.9801 38.7518Z" fill="white"/>
<path d="M49.0105 32.2008L52.4819 28.7303C53.0236 28.1888 53.0236 27.3108 52.4819 26.7692C51.9401 26.2278 51.0621 26.2278 50.5202 26.7692L48.0296 29.2591L45.8719 27.102L48.1064 24.8679C48.6481 24.3264 48.6481 23.4484 48.1064 22.9067C47.5646 22.3654 46.6866 22.3654 46.1447 22.9067L43.9101 25.1408L41.7523 22.9836L44.243 20.4936C44.7847 19.9522 44.7847 19.0741 44.243 18.5325C43.7012 17.9911 42.8232 17.9911 42.2813 18.5325L38.8099 22.0029C38.2682 22.5444 38.2682 23.4224 38.8099 23.9641L42.9293 28.0824L42.93 28.083L47.0486 32.2006C47.3089 32.4606 47.6616 32.6068 48.0294 32.6068C48.3973 32.6068 48.7503 32.4608 49.0105 32.2008Z" fill="white"/>
<path d="M39.9852 40.6492C40.353 40.6492 40.7057 40.503 40.9659 40.243L44.4374 36.7726C44.979 36.2311 44.979 35.3531 44.4374 34.8114C43.8956 34.2701 43.0176 34.2701 42.4756 34.8114L39.985 37.3014L37.8273 35.1442L40.0621 32.9102C40.6038 32.3687 40.6038 31.4906 40.0621 30.949C39.5205 30.4079 38.6425 30.4076 38.1004 30.949L35.8657 33.1831L33.708 31.026L36.1987 28.5361C36.7404 27.9946 36.7404 27.1165 36.1987 26.5749C35.657 26.0335 34.7789 26.0335 34.237 26.5749L30.7656 30.0453C30.224 30.5868 30.224 31.4648 30.7656 32.0065L39.0042 40.2429C39.2644 40.503 39.6172 40.6492 39.9852 40.6492Z" fill="white"/>
<path d="M44.3952 51.4648C44.0304 51.4648 43.6726 51.6132 43.4145 51.8711C43.1567 52.1291 43.0081 52.4868 43.0081 52.8516C43.0081 53.2163 43.1565 53.574 43.4145 53.832C43.6726 54.0898 44.0304 54.2383 44.3952 54.2383C44.7601 54.2383 45.1179 54.0899 45.3759 53.832C45.6338 53.574 45.7824 53.2163 45.7824 52.8516C45.7824 52.4868 45.6339 52.1291 45.3759 51.8711C45.1179 51.6132 44.7601 51.4648 44.3952 51.4648Z" fill="white"/>
</svg>
