<svg width="1920" height="1200" viewBox="0 0 1920 1200" fill="none" xmlns="http://www.w3.org/2000/svg">
<path fill-rule="evenodd" clip-rule="evenodd" d="M0 0L107 39L108.554 39.557C215.081 77.7474 428.036 154.092 640 173C756.752 183.414 873.804 176.703 990.827 169.994C1087.3 164.463 1183.75 158.933 1280 163C1486.81 172.709 1694.56 227.668 1803.48 256.484C1806.75 257.347 1809.92 258.186 1813 259L1920 288V400V461V1132V1152V1183.96L1760 1188.29C1600 1192.62 1280 1201.28 960 1199.84C640 1198.4 320 1186.85 160 1181.08L0 1175.3V1152V1132V461V400V0Z" fill="#5576EB"/>
</svg>
